<?xml version="1.0" standalone="no"?>
<!DOCTYPE svg PUBLIC "-//W3C//DTD SVG 20010904//EN"
 "http://www.w3.org/TR/2001/REC-SVG-20010904/DTD/svg10.dtd">
<svg version="1.0" xmlns="http://www.w3.org/2000/svg"
 width="773.000000pt" height="609.000000pt" viewBox="0 0 773.000000 609.000000"
 preserveAspectRatio="xMidYMid meet">

<g transform="translate(0.000000,609.000000) scale(0.100000,-0.100000)"
fill="#000000" stroke="none">
<path d="M4445 5864 c-373 -40 -647 -116 -865 -239 -117 -66 -222 -154 -282
-236 -49 -68 10 -50 -513 -159 -187 -39 -538 -112 -780 -163 l-440 -93 3 -80
c5 -170 44 -266 142 -357 34 -31 64 -57 69 -57 4 0 13 -46 20 -102 52 -427
198 -745 363 -793 125 -36 332 -44 568 -21 l135 13 40 -27 c62 -42 243 -143
320 -180 225 -105 275 -114 586 -105 255 8 280 4 328 -50 38 -44 54 -100 57
-200 2 -61 8 -94 28 -137 45 -101 60 -174 60 -298 0 -202 -45 -312 -259 -630
-191 -285 -235 -380 -235 -505 0 -76 26 -115 276 -400 139 -159 259 -310 325
-407 32 -46 38 -62 29 -73 -17 -21 -168 -72 -277 -94 -427 -87 -1067 -18
-1530 165 -307 121 -685 330 -1006 555 -53 38 -97 65 -97 61 0 -22 54 -87 167
-200 494 -493 1120 -796 1809 -877 169 -20 519 -20 689 0 611 71 1163 311
1635 710 134 113 341 335 449 479 282 378 474 801 540 1191 12 67 30 163 42
215 30 138 38 546 15 750 -40 347 -129 671 -246 895 -177 339 -278 515 -356
618 -213 280 -505 546 -807 735 -75 47 -170 74 -346 97 -135 18 -481 18 -656
-1z m269 -518 c65 -87 128 -199 155 -279 11 -31 29 -114 41 -184 26 -158 53
-260 84 -321 38 -74 163 -250 261 -369 91 -110 322 -353 335 -353 4 0 20 52
35 116 30 129 56 207 140 429 109 285 123 460 48 614 -15 31 -29 61 -31 66 -2
6 21 -16 51 -48 91 -96 147 -225 147 -336 0 -169 -86 -492 -215 -806 -49 -120
-132 -305 -140 -314 -6 -6 -135 69 -220 127 -203 140 -364 322 -468 527 -143
285 -223 588 -242 920 -6 104 -25 228 -40 268 -13 33 3 17 59 -57z m-953 -57
c97 -72 207 -193 253 -279 22 -40 33 -69 25 -65 -8 5 -41 26 -73 47 -56 36
-139 68 -177 68 -20 0 -64 -119 -77 -210 l-7 -55 -33 56 c-81 141 -103 255
-68 356 16 48 69 133 82 133 4 0 37 -23 75 -51z"/>
<path d="M1081 3806 c2 -2 68 -27 146 -55 444 -161 760 -327 1016 -535 60 -48
104 -79 98 -69 -45 83 -183 218 -306 302 -207 141 -424 231 -766 317 -171 43
-197 48 -188 40z"/>
<path d="M1095 3289 c-55 -5 -131 -12 -170 -17 l-70 -9 88 -2 c138 -2 419 -20
572 -37 247 -27 434 -72 667 -159 89 -33 92 -33 63 -9 -96 81 -311 171 -495
208 -169 34 -430 44 -655 25z"/>
<path d="M2641 3195 c-61 -55 -86 -122 -86 -230 0 -81 3 -97 33 -159 18 -38
35 -66 38 -63 4 3 10 61 15 129 5 68 12 131 15 141 12 37 105 10 166 -50 l38
-37 -49 -51 c-27 -28 -59 -71 -71 -95 -25 -49 -72 -171 -68 -175 2 -2 45 46
97 107 52 60 135 144 184 186 l89 77 -34 3 c-19 2 -45 -1 -58 -6 -22 -8 -32
-3 -76 37 -28 26 -84 64 -123 85 l-72 37 7 50 c4 27 4 49 0 49 -3 0 -23 -16
-45 -35z"/>
<path d="M3963 3151 c-61 -48 -103 -97 -103 -120 0 -36 98 -93 187 -107 39 -6
40 -5 47 26 15 76 0 162 -36 213 -11 15 -25 27 -33 27 -7 0 -35 -17 -62 -39z"/>
<path d="M900 2896 c-72 -21 -100 -35 -106 -50 -12 -31 64 -373 112 -508 47
-130 89 -178 155 -178 39 0 107 42 134 83 15 23 13 28 -20 90 -19 35 -35 67
-35 70 0 3 34 -6 76 -19 42 -14 78 -23 80 -22 1 2 -4 30 -12 63 -7 33 -14 63
-14 67 0 4 30 -7 68 -25 75 -35 157 -42 204 -17 l27 15 -56 84 c-172 258 -428
403 -613 347z"/>
<path d="M3435 2705 c-244 -53 -444 -211 -572 -452 l-46 -86 119 123 c65 67
157 151 204 187 92 70 299 177 420 217 l75 25 -70 0 c-38 0 -97 -6 -130 -14z"/>
<path d="M4106 2612 c-23 -79 -77 -157 -134 -193 -57 -36 -140 -68 -199 -76
-24 -3 -46 -9 -48 -13 -9 -15 36 -43 77 -47 61 -7 135 24 264 110 118 78 132
100 99 151 -9 13 -15 30 -14 38 3 28 -2 55 -14 72 -11 15 -15 11 -31 -42z"/>
<path d="M3525 2527 c-97 -40 -143 -69 -234 -147 -122 -105 -216 -265 -260
-439 -19 -75 -29 -162 -14 -121 19 54 115 231 171 315 78 120 228 272 356 363
49 34 82 62 75 62 -8 0 -50 -15 -94 -33z"/>
</g>
</svg>
