<svg width="110" height="110" viewBox="0 0 110 110" fill="none" xmlns="http://www.w3.org/2000/svg">
<g clip-path="url(#clip0_1_5)">
<path d="M68.0712 0.278419C61.6201 1.05304 56.8812 2.5248 53.1108 4.90674C51.0873 6.18484 49.2713 7.889 48.2336 9.47695C47.3861 10.7938 48.4065 10.4452 39.3611 12.556C36.1269 13.3113 30.0563 14.725 25.8709 15.7126L18.261 17.5136L18.3129 19.0628C18.3993 22.3549 19.0739 24.214 20.7688 25.9762C21.3568 26.5765 21.8757 27.08 21.9622 27.08C22.0313 27.08 22.187 27.9708 22.3081 29.0553C23.2074 37.3243 25.7325 43.4825 28.5862 44.412C30.7481 45.1092 34.3282 45.2641 38.4099 44.8187L40.7448 44.5669L41.4366 45.0898C42.5089 45.9031 45.6393 47.859 46.971 48.5756C50.8625 50.6089 51.7272 50.7832 57.106 50.6089C61.5163 50.454 61.9487 50.5314 62.7789 51.5772C63.4361 52.4292 63.7128 53.5137 63.7647 55.4502C63.7993 56.6315 63.9031 57.2706 64.249 58.1033C65.0273 60.0592 65.2867 61.4729 65.2867 63.8742C65.2867 67.786 64.5084 69.9161 60.8072 76.0743C57.5038 81.5934 56.7428 83.4331 56.7428 85.8538C56.7428 87.3256 57.1925 88.0808 61.5163 93.5999C63.9204 96.679 65.9958 99.6032 67.1373 101.482C67.6907 102.372 67.7945 102.682 67.6388 102.895C67.3448 103.302 64.7332 104.29 62.8481 104.716C55.463 106.4 44.3941 105.064 36.3864 101.52C31.0767 99.1772 24.5391 95.1298 18.9874 90.7726C18.0707 90.0367 17.3097 89.5139 17.3097 89.5913C17.3097 90.0174 18.2437 91.2761 20.198 93.4644C28.7419 103.011 39.5687 108.879 51.4851 110.448C54.408 110.835 60.4613 110.835 63.4015 110.448C73.9689 109.073 83.5158 104.425 91.6792 96.6984C93.9967 94.5101 97.5769 90.211 99.4447 87.4224C104.322 80.1023 107.643 71.9108 108.784 64.3583C108.992 63.0608 109.303 61.2017 109.511 60.1947C110.029 57.5223 110.168 49.6213 109.77 45.6708C109.078 38.951 107.539 32.6766 105.515 28.3388C102.454 21.7739 100.707 18.3656 99.3583 16.371C95.6744 10.9487 90.6242 5.79754 85.401 2.1375C84.1039 1.22733 82.4608 0.70446 79.4169 0.259056C77.082 -0.0895157 71.0979 -0.0895157 68.0712 0.278419ZM72.7236 10.3097C73.8478 11.9944 74.9374 14.1634 75.4044 15.7126C75.5946 16.3129 75.9059 17.9202 76.1135 19.2758C76.5632 22.3355 77.0301 24.3108 77.5663 25.4921C78.2235 26.9251 80.3854 30.3334 82.0803 32.6379C83.6542 34.7681 87.6494 39.4738 87.8742 39.4738C87.9434 39.4738 88.2201 38.4669 88.4796 37.2275C88.9984 34.7293 89.4481 33.2188 90.9009 28.9197C92.7861 23.4006 93.0282 20.0117 91.7311 17.0294C91.4716 16.4291 91.2295 15.8481 91.1949 15.7513C91.1603 15.6351 91.5581 16.0612 92.077 16.6809C93.6508 18.5399 94.6194 21.0381 94.6194 23.1876C94.6194 26.4603 93.132 32.7153 90.9009 38.7961C90.0534 41.1199 88.6179 44.7025 88.4796 44.8768C88.3758 44.993 86.1447 43.5406 84.6746 42.4174C81.1637 39.7062 78.3792 36.1817 76.5805 32.2118C74.1072 26.6927 72.7236 20.825 72.395 14.3957C72.2912 12.3818 71.9626 9.98045 71.7032 9.20584C71.4784 8.56678 71.7551 8.87663 72.7236 10.3097ZM56.2413 11.4135C57.9189 12.8078 59.8214 15.151 60.617 16.8164C60.9975 17.591 61.1877 18.1526 61.0494 18.0752C60.911 17.9783 60.3402 17.5717 59.7868 17.165C58.8183 16.4678 57.3828 15.8481 56.7255 15.8481C56.3796 15.8481 55.6187 18.1526 55.3938 19.9149L55.2727 20.98L54.702 19.8955C53.3011 17.165 52.9206 14.9573 53.5259 13.0014C53.8027 12.0719 54.7193 10.4259 54.9441 10.4259C55.0133 10.4259 55.5841 10.8713 56.2413 11.4135Z" fill="black"/>
<path d="M9.89011 40.1323C9.9247 40.171 11.0662 40.6551 12.4152 41.1974C20.0943 44.3152 25.5596 47.5298 29.9872 51.5578C31.0249 52.4873 31.7859 53.0877 31.6821 52.894C30.9038 51.2867 28.5171 48.6724 26.3898 47.0457C22.8096 44.3152 19.0566 42.5723 13.1416 40.9069C10.1841 40.0742 9.73446 39.9773 9.89011 40.1323Z" fill="black"/>
<path d="M10.1322 50.1441C9.18101 50.241 7.86657 50.3765 7.19206 50.4733L5.98139 50.6476L7.50337 50.6864C9.89011 50.7251 14.7501 51.0737 17.3962 51.4029C21.6682 51.9257 24.9024 52.7972 28.9322 54.482C30.4714 55.121 30.5233 55.121 30.0218 54.6562C28.3614 53.0877 24.6429 51.3448 21.4606 50.6283C18.5377 49.9698 14.0237 49.7762 10.1322 50.1441Z" fill="black"/>
<path d="M36.8706 51.9645C35.8156 53.0296 35.3832 54.3271 35.3832 56.4185C35.3832 57.9871 35.4351 58.297 35.954 59.4976C36.2653 60.2335 36.5593 60.7757 36.6112 60.7176C36.6804 60.6595 36.7842 59.5363 36.8706 58.2195C36.9571 56.9027 37.0782 55.6826 37.1301 55.489C37.3376 54.7725 38.9461 55.2953 40.0011 56.4572L40.6583 57.1738L39.8108 58.1614C39.3439 58.7036 38.7904 59.5363 38.5829 60.0011C38.1505 60.95 37.3376 63.3126 37.4068 63.39C37.4414 63.4288 38.1851 62.4992 39.0844 61.3179C39.9838 60.156 41.4193 58.5293 42.2667 57.716L43.806 56.2249L43.218 56.1668C42.8894 56.128 42.4397 56.1861 42.2149 56.283C41.8344 56.4379 41.6614 56.3411 40.9004 55.5664C40.4162 55.0629 39.4476 54.3271 38.7731 53.9204L37.5279 53.2039L37.6489 52.2356C37.7181 51.7127 37.7181 51.2867 37.6489 51.2867C37.597 51.2867 37.2511 51.5966 36.8706 51.9645Z" fill="black"/>
<path d="M59.7349 52.8166C58.6799 53.7461 57.9535 54.695 57.9535 55.1404C57.9535 55.8376 59.6485 56.9414 61.1877 57.2125C61.8622 57.3287 61.8795 57.3093 62.0006 56.709C62.26 55.2372 62.0006 53.5718 61.378 52.5842C61.1877 52.2937 60.9456 52.0613 60.8072 52.0613C60.6862 52.0613 60.2019 52.3905 59.7349 52.8166Z" fill="black"/>
<path d="M6.75966 57.7547C5.5144 58.1614 5.03014 58.4325 4.92637 58.723C4.71882 59.3233 6.03326 65.9463 6.86343 68.5606C7.67631 71.0781 8.40271 72.0076 9.54419 72.0076C10.2187 72.0076 11.3948 71.1943 11.8618 70.4003C12.1212 69.9549 12.0866 69.858 11.5158 68.6574C11.1872 67.9796 10.9105 67.3599 10.9105 67.3018C10.9105 67.2437 11.4986 67.418 12.2249 67.6698C12.9513 67.9409 13.574 68.1152 13.6086 68.0958C13.6259 68.0571 13.5394 67.5148 13.401 66.8758C13.28 66.2367 13.1589 65.6558 13.1589 65.5783C13.1589 65.5008 13.6777 65.7139 14.335 66.0624C15.6321 66.7402 17.0503 66.8758 17.8632 66.3917L18.3302 66.1012L17.3616 64.4745C14.3869 59.4782 9.95928 56.6703 6.75966 57.7547Z" fill="black"/>
<path d="M50.603 61.4535C46.383 62.4799 42.924 65.5396 40.7102 70.2066L39.9146 71.872L41.9727 69.4901C43.0969 68.1926 44.6881 66.5659 45.501 65.8688C47.0921 64.5132 50.6722 62.4411 52.7649 61.6665L54.0621 61.1824H52.8514C52.1942 61.1824 51.1738 61.2986 50.603 61.4535Z" fill="black"/>
<path d="M62.2081 63.2545C61.8103 64.7843 60.8764 66.2948 59.8906 66.992C58.9048 67.6891 57.4692 68.3088 56.4488 68.4637C56.0337 68.5218 55.6533 68.638 55.6187 68.7155C55.463 69.006 56.2413 69.5482 56.9504 69.6257C58.0054 69.7612 59.2852 69.1609 61.5163 67.4955C63.5572 65.985 63.7993 65.5589 63.2286 64.5713C63.0729 64.3196 62.9691 63.9903 62.9864 63.8354C63.0383 63.2932 62.9518 62.7703 62.7443 62.4411C62.554 62.1506 62.4849 62.2281 62.2081 63.2545Z" fill="black"/>
<path d="M52.1596 64.9005C50.482 65.6751 49.6864 66.2367 48.1125 67.7472C46.0025 69.7806 44.3768 72.879 43.6158 76.2486C43.2872 77.701 43.1142 79.3858 43.3736 78.5918C43.7022 77.5461 45.3626 74.1184 46.3311 72.4917C47.6802 70.1679 50.2744 67.2244 52.4882 65.4621C53.3357 64.8037 53.9064 64.2615 53.7854 64.2615C53.647 64.2615 52.9206 64.5519 52.1596 64.9005Z" fill="black"/>
</g>
<defs>
<clipPath id="clip0_1_5">
<rect width="110" height="110" fill="white"/>
</clipPath>
</defs>
</svg>
