<svg width="230" height="231" viewBox="0 0 230 231" fill="none" xmlns="http://www.w3.org/2000/svg">
<path d="M186.803 130.262L115.193 201.554L43.5831 130.262M43.5831 130.262C38.8598 125.642 35.1393 120.089 32.6559 113.952C30.1725 107.815 28.98 101.229 29.1536 94.6059C29.3271 87.9833 30.8629 81.4685 33.6642 75.4719C36.4656 69.4752 40.4718 64.1266 45.4305 59.7627C50.3893 55.3989 56.1932 52.1144 62.4768 50.1161C68.7604 48.1177 75.3876 47.4489 81.941 48.1516C88.4944 48.8543 94.832 50.9134 100.555 54.1992C106.278 57.485 111.262 61.9263 115.193 67.2434C119.142 61.9649 124.131 57.5624 129.85 54.3115C135.569 51.0606 141.894 49.0312 148.429 48.3505C154.964 47.6697 161.569 48.3522 167.829 50.3551C174.09 52.3581 179.872 55.6385 184.813 59.991C189.754 64.3435 193.749 69.6744 196.546 75.65C199.344 81.6256 200.884 88.1174 201.071 94.7189C201.258 101.32 200.087 107.89 197.632 114.016C195.177 120.141 191.49 125.692 186.803 130.32" stroke="#45822F" stroke-width="19.1955" stroke-linecap="round" stroke-linejoin="round"/>
</svg>
